<svg width="54" height="64" viewBox="0 0 54 64" fill="none" xmlns="http://www.w3.org/2000/svg">
                <path fill-rule="evenodd" clip-rule="evenodd" d="M12.5374 0.0717339C12.4439 0.110409 12.1761 0.169271 11.9424 0.202846C11.7086 0.236208 11.4326 0.318019 11.3291 0.384532C11.2257 0.451043 11.0852 0.505443 11.0172 0.505443C10.9494 0.505443 10.7853 0.560906 10.653 0.628692C10.5208 0.696268 10.355 0.774253 10.2849 0.801878C9.45956 1.12679 8.00523 2.47041 7.40639 3.4615C7.01115 4.11558 6.70071 4.86187 6.48098 5.68572C6.07022 7.22657 6.29696 35.7923 6.72369 36.2434C6.76552 36.2878 6.79992 36.3868 6.79992 36.4635C6.79992 37.1327 8.43148 39.4109 9.44621 40.1582C10.4345 40.8865 10.6538 40.8763 9.9566 40.1349C9.76894 39.9353 9.59131 39.6963 9.56203 39.6036C9.53247 39.511 9.47278 39.4351 9.42922 39.4351C9.38565 39.4351 9.34993 39.3777 9.34993 39.3076C9.34993 39.2375 9.31699 39.1801 9.27662 39.1801C9.08451 39.1801 7.98996 36.6758 7.98996 36.2364C7.98996 36.1335 7.94978 36.036 7.90091 36.0196C7.65528 35.9378 7.62022 34.0483 7.61404 20.6078C7.60786 6.9737 7.62765 5.93371 7.89832 5.66299C7.94872 5.61263 7.98996 5.49894 7.98996 5.41032C7.98996 4.95686 8.99632 3.43282 9.60492 2.96447C10.3364 2.40156 10.629 2.20543 10.7369 2.20543C10.8041 2.20543 10.9067 2.14806 10.9649 2.07793C11.0231 2.00781 11.1379 1.95043 11.2199 1.95043C11.302 1.95043 11.4167 1.89305 11.4749 1.82293C11.5331 1.75281 11.7112 1.69543 11.8708 1.69543C12.0304 1.69543 12.2535 1.63487 12.3666 1.56071C12.6768 1.35735 14.8919 1.35097 15.2744 1.55221C15.424 1.63105 15.663 1.69543 15.8056 1.69543C15.9482 1.69543 16.0648 1.73071 16.0648 1.77363C16.0648 1.81677 16.1771 1.87648 16.3139 1.90665C16.451 1.93683 16.6086 2.0163 16.6643 2.08346C16.72 2.15061 16.7954 2.20543 16.8318 2.20543C16.9193 2.20543 17.6592 2.70714 17.9631 2.97254C18.3845 3.34059 19.1076 4.35378 19.3875 4.96854C19.9596 6.22504 19.9171 5.11644 19.9738 20.2253C20.0282 34.6711 20.0145 34.1941 20.417 35.7377C20.8291 37.3167 21.8729 38.8852 23.2405 39.9802C23.7412 40.381 24.6026 40.8801 24.7934 40.8801C24.8835 40.8801 25.0314 40.9362 25.1224 41.0048C25.2161 41.0758 25.4753 41.1309 25.7229 41.1323C25.9624 41.1339 26.3211 41.1925 26.5198 41.2626C27.0447 41.4477 35.4608 41.4477 35.7847 41.2626C35.9016 41.1959 36.1526 41.1398 36.3423 41.1381C36.5319 41.1364 36.7614 41.079 36.8523 41.0103C36.943 40.9417 37.096 40.8844 37.1923 40.8828C37.2883 40.8814 37.4413 40.824 37.5323 40.7553C37.623 40.6867 37.7422 40.6294 37.7973 40.6278C37.9218 40.6245 39.044 39.8841 39.4259 39.5533C39.8908 39.1503 40.3746 38.674 40.3746 38.6187C40.3746 38.5902 40.4798 38.4277 40.6084 38.257C40.8895 37.8839 41.0217 37.6775 41.1598 37.3951C41.217 37.2783 41.2835 37.1635 41.308 37.1401C42.1201 36.3596 42.2391 32.571 41.5028 30.9352C41.2657 30.4084 41.1188 30.1356 40.8717 29.7622C40.7385 29.5612 40.6296 29.3644 40.6296 29.3251C40.6296 29.2856 40.5723 29.2314 40.5021 29.2044C40.432 29.1776 40.3746 29.1179 40.3746 29.072C40.3746 28.9938 39.5567 28.1302 39.4828 28.1302C39.4643 28.1302 39.3037 27.9965 39.1256 27.8332C38.9477 27.6697 38.7576 27.5359 38.7029 27.5356C38.6485 27.5354 38.5911 27.5023 38.5755 27.4621C38.5435 27.3799 37.3024 26.7702 37.1668 26.7702C37.1186 26.7702 36.9696 26.7131 36.8357 26.6431C36.7019 26.5735 36.4736 26.5161 36.3287 26.5156C36.1838 26.5154 35.9543 26.478 35.8187 26.4328C35.3629 26.2804 35.0815 26.2743 28.2971 26.2672L21.532 26.2602L21.4266 26.0288C21.3452 25.8501 21.3195 23.8567 21.3133 17.2526C21.3055 8.67791 21.2494 5.62665 21.0977 5.52997C21.0528 5.50128 20.9878 5.34403 20.9532 5.1804C20.9185 5.01678 20.8401 4.78728 20.7791 4.67041C20.718 4.55354 20.5849 4.28579 20.4834 4.07542C19.6786 2.40688 18.4652 1.3395 16.2773 0.374544C15.6482 0.097234 12.9966 -0.117602 12.5374 0.0717339ZM12.7074 3.54183C11.878 3.79576 11.3427 4.11494 10.7958 4.6821C10.3858 5.10688 10.3463 5.16383 10.1262 5.6479C10.0197 5.88165 9.88774 6.1494 9.83249 6.24289C9.7046 6.46007 9.64191 33.9068 9.76748 34.71C9.91922 35.6803 10.2705 36.7387 10.6307 37.3101C10.6748 37.3803 10.7365 37.495 10.7677 37.5651C10.8944 37.8499 12.0788 39.3276 12.3698 39.5639C12.5417 39.7035 12.7261 39.8584 12.7797 39.9086C13.0474 40.1576 13.7673 40.613 13.8028 40.5556C13.8249 40.5197 13.6562 40.2815 13.4278 40.0265C13.1991 39.7713 13.0106 39.5322 13.0085 39.4953C13.0049 39.4262 12.9054 39.2925 12.6437 39.004C12.5619 38.9139 12.4949 38.7827 12.4949 38.7126C12.4949 38.6425 12.4605 38.5851 12.4182 38.5851C12.3761 38.5851 12.3 38.4799 12.2494 38.3514C12.1989 38.2228 12.1209 38.0602 12.0762 37.9901C11.9218 37.747 11.5722 36.9209 11.5174 36.6699C11.4872 36.5311 11.4097 36.2838 11.3451 36.1202C10.9842 35.207 10.9719 34.7004 10.9702 20.6928C10.9683 6.37422 10.9539 6.89866 11.3718 6.2004C11.5561 5.89249 12.4224 5.09583 12.5763 5.09264C12.6483 5.09116 12.7815 5.03378 12.8723 4.96515C13.0948 4.79706 14.4269 4.79132 14.6647 4.95771C14.7569 5.02209 14.898 5.08903 14.9781 5.10646C15.1811 5.15023 16.0557 5.87952 16.0608 6.00915C16.0629 6.06759 16.098 6.1154 16.1384 6.1154C16.1788 6.1154 16.2931 6.35594 16.3924 6.64984L16.573 7.18407L16.598 21.0785C16.6118 28.7203 16.6446 35.0301 16.6707 35.1002C16.6968 35.1703 16.747 35.3424 16.7818 35.4827C17.23 37.2791 18.3335 38.9088 19.9376 40.1436C20.7915 40.8008 20.7421 40.5312 19.8236 39.5209C19.7168 39.4037 19.6074 39.2215 19.5804 39.1163C19.5534 39.0112 19.5045 38.9251 19.4716 38.9251C19.4151 38.9251 18.8805 37.9028 18.6495 37.3526C18.5906 37.2124 18.4822 36.9581 18.4087 36.7874C18.335 36.6165 18.2742 36.4062 18.2736 36.3199C18.2729 36.2334 18.2194 36.0097 18.1548 35.8227C17.9266 35.1637 17.9025 33.911 17.8552 20.1828C17.8103 7.20087 17.798 6.31068 17.6586 6.0559C17.5768 5.9063 17.5099 5.7397 17.5099 5.68551C17.5099 5.20675 15.6981 3.65042 15.1405 3.65042C15.0525 3.65042 14.8432 3.59304 14.6755 3.52292C14.2848 3.35972 13.2703 3.36949 12.7074 3.54183ZM13.6093 6.85576C13.1381 7.04229 13.1749 5.84424 13.1749 21.019C13.1749 32.8689 13.1927 34.9217 13.298 35.2587C13.3657 35.4754 13.4896 35.8822 13.5733 36.1627C13.6568 36.4432 13.8311 36.8561 13.9601 37.0802C14.0893 37.3042 14.1949 37.5084 14.1949 37.5336C14.1949 37.9327 16.5114 40.3701 16.8907 40.3701C16.9508 40.3701 16.9998 40.4084 16.9998 40.4551C16.9998 40.5019 17.0591 40.5401 17.1316 40.5401C17.2969 40.5401 17.2344 40.4273 16.7873 39.919C16.2969 39.3612 16.1498 39.1591 16.1498 39.0424C16.1498 38.9857 16.1139 38.9266 16.0702 38.9109C15.7374 38.7926 14.8664 36.5804 14.6033 35.1852C14.5462 34.8824 14.4962 29.8714 14.4614 20.9616L14.4074 7.20552L14.1689 7.00046C13.9297 6.79474 13.8287 6.76864 13.6093 6.85576ZM15.8507 16.3153C15.8507 21.0137 15.8611 22.9357 15.8736 20.5865C15.8862 18.2373 15.8862 14.3932 15.8736 12.0441C15.8611 9.6949 15.8507 11.617 15.8507 16.3153ZM15.849 30.5527C15.849 32.6564 15.86 33.5049 15.8736 32.4382C15.887 31.3714 15.887 29.6502 15.8736 28.6132C15.86 27.5763 15.849 28.4489 15.849 30.5527ZM35.8994 27.8253C36.0467 27.8913 36.3106 27.9696 36.4859 27.9991C36.6612 28.0287 36.8047 28.0894 36.8047 28.1341C36.8047 28.1787 36.8614 28.2152 36.9309 28.2152C37.3824 28.2152 38.9877 29.4579 39.5729 30.2603C41.7323 33.2217 40.5812 37.7445 37.2722 39.301C37.0852 39.389 36.8306 39.5124 36.7065 39.5756C36.5824 39.6385 36.3892 39.6901 36.2773 39.6901C36.1653 39.6901 36.0259 39.738 35.9674 39.7964C35.7968 39.9672 26.5149 39.9961 26.0523 39.8272C25.8653 39.7589 25.588 39.678 25.436 39.6474C25.2841 39.6166 25.1598 39.5565 25.1598 39.5133C25.1598 39.4704 25.0922 39.4351 25.0096 39.4351C24.642 39.4351 23.5448 38.499 23.5448 38.1854V37.9901H29.3329C34.1752 37.9901 35.1578 37.9704 35.3465 37.8692C35.4707 37.8027 35.7777 37.6857 36.0289 37.6091C36.7815 37.3796 38.2469 36.0789 38.2501 35.6371C38.2506 35.5989 38.302 35.4695 38.3646 35.3494C39.4201 33.3266 38.0272 30.6117 35.5562 29.8765C35.1748 29.7628 34.2025 29.7452 28.3545 29.7452H21.5936L21.4445 29.5172C21.2696 29.2503 21.2558 28.0303 21.4254 27.8259C21.5749 27.6459 35.4976 27.6453 35.8994 27.8253ZM8.19714 30.4252C8.19714 31.7108 8.20903 32.2367 8.22344 31.5939C8.23791 30.9511 8.23791 29.8993 8.22344 29.2564C8.20903 28.6136 8.19714 29.1396 8.19714 30.4252ZM35.7698 31.3969C37.4322 32.3118 37.7841 34.3611 36.4997 35.6452C36.187 35.958 35.7377 36.2902 35.6279 36.2902C35.5845 36.2902 35.4404 36.3467 35.3074 36.4155C35.0622 36.5428 22.9273 36.6185 22.4746 36.4956C22.2945 36.4467 22.0705 36.0343 21.9706 35.5677C21.9407 35.4274 21.8739 35.2019 21.8225 35.0666C21.6028 34.4881 21.3648 34.5086 28.3627 34.5069C35.4821 34.5051 35.1047 34.5419 35.1047 33.8494C35.1047 33.0931 35.6547 33.1513 28.2667 33.1254C20.7065 33.0991 21.4798 33.2174 21.4323 32.0778C21.3869 30.9875 20.5735 31.0978 28.4656 31.1245L35.3172 31.1477L35.7698 31.3969ZM15.2687 50.0346C15.2313 50.0719 15.1752 50.1059 15.1441 50.1102C14.489 50.199 14.1949 50.2659 14.1949 50.3261C14.1949 50.3666 14.1313 50.4 14.054 50.4C13.9233 50.4 12.6755 50.9791 12.5799 51.0841C12.5565 51.1098 12.4036 51.2205 12.2399 51.3304C9.552 53.1332 8.54178 57.3232 10.1279 60.09C10.168 60.1601 10.2269 60.2748 10.2583 60.345C10.6364 61.1843 12.8289 63.2237 13.3687 63.2377C13.4257 63.2391 13.5466 63.2965 13.6373 63.3652C13.7283 63.4338 13.8813 63.4912 13.9773 63.4927C14.0736 63.4941 14.2266 63.5515 14.3173 63.6202C14.4082 63.6888 14.6041 63.7449 14.7529 63.7449C14.9016 63.7449 15.1862 63.8023 15.3849 63.8724C15.8008 64.0191 17.2574 64.0484 17.3932 63.9126C17.441 63.8647 17.6877 63.804 17.9414 63.7781C18.195 63.7519 18.5267 63.6765 18.6786 63.6102C19.0296 63.4574 19.4703 63.267 19.6348 63.1973C19.8688 63.0981 20.4869 62.6979 20.8242 62.4274C21.2734 62.067 22.1848 61.0889 22.1848 60.9672C22.1848 60.9361 22.2375 60.8505 22.3019 60.7765C23.9298 58.9114 23.8155 54.964 22.0684 52.7139C21.2409 51.6481 19.5526 50.4022 18.9336 50.4004C18.8518 50.4002 18.7849 50.369 18.7849 50.3312C18.7849 50.127 15.4569 49.8462 15.2687 50.0346ZM0.184874 50.4268L0 50.6236V56.9284V63.2334L0.267536 63.4893L0.535282 63.7449H4.55723H8.57897L8.83695 63.4927C9.16844 63.1688 9.17143 62.8733 8.84651 62.5483L8.59809 62.2999H5.07382H1.54954L1.4146 62.094C1.29539 61.9119 1.2769 61.2256 1.25608 56.1902C1.23292 50.606 1.22909 50.4897 1.06249 50.3639C0.804733 50.169 0.399497 50.1982 0.184874 50.4268ZM25.5068 50.5163C25.334 50.7957 25.3298 50.8981 25.3313 54.745C25.333 59.1819 25.4465 60.3834 25.929 61.0674C25.962 61.1142 26.0175 61.2451 26.0523 61.3584C26.1324 61.6189 26.1872 61.6877 26.8608 62.3737C27.4165 62.9393 27.5958 63.0824 27.9352 63.2299C28.036 63.2736 28.1433 63.3501 28.1741 63.3996C28.2047 63.4493 28.3258 63.4899 28.4433 63.4899C28.5608 63.4899 28.7142 63.5473 28.7844 63.6174C28.8545 63.6875 29.0526 63.7466 29.2247 63.7487C29.3966 63.7507 29.6902 63.8076 29.8772 63.875C30.3409 64.042 31.8235 64.0405 32.2998 63.8724C32.4984 63.8023 32.8093 63.7449 32.9904 63.7449C33.1716 63.7449 33.3197 63.7084 33.3197 63.6639C33.3197 63.6193 33.4508 63.5467 33.6113 63.5024C34.5543 63.2419 35.8282 61.9561 36.2371 60.8518C36.6709 59.6802 36.6608 59.8071 36.6955 55.1131C36.7325 50.0845 36.7513 50.23 36.0648 50.23C35.3616 50.23 35.3669 50.192 35.3384 55.5C35.314 60.0801 35.3501 59.7091 34.8285 60.7404C34.6221 61.148 34.0713 61.7899 33.9277 61.7899C33.8737 61.7899 33.8297 61.8243 33.8297 61.8666C33.8297 61.9087 33.7245 61.9848 33.596 62.0354C33.4674 62.086 33.3049 62.1612 33.2347 62.2024C32.654 62.5434 30.0233 62.7039 29.4774 62.4315C29.3322 62.359 29.1399 62.2999 29.0498 62.2999C28.574 62.2999 27.4694 61.3135 27.1388 60.5934C26.6821 59.5988 26.6889 59.6809 26.6893 55.085C26.6897 50.1713 26.698 50.23 26.0098 50.23C25.7312 50.23 25.6579 50.2717 25.5068 50.5163ZM43.8596 50.3839C43.7895 50.4629 43.661 50.6805 43.574 50.8675C43.4871 51.0545 43.3817 51.2649 43.3396 51.335C43.2978 51.4051 43.2417 51.5199 43.2147 51.59C43.188 51.6601 43.0925 51.8748 43.0028 52.0669C42.913 52.259 42.8397 52.4598 42.8397 52.5131C42.8397 52.5664 42.8014 52.61 42.7547 52.61C42.7079 52.61 42.6697 52.6508 42.6697 52.7005C42.6697 52.7932 42.4841 53.2152 41.8872 54.48C41.6998 54.8774 41.4406 55.432 41.3112 55.7125C41.1819 55.993 40.8968 56.605 40.6773 57.0725C40.458 57.5399 40.2255 58.0372 40.1607 58.1774C40.0959 58.3177 39.8655 58.8149 39.6486 59.2825C39.2597 60.1214 39.145 60.3698 38.4911 61.7899C38.3081 62.1873 38.1024 62.6208 38.034 62.753C37.5875 63.6172 38.3723 64.0191 39.1139 63.3059C39.5423 62.8938 40.6065 62.0796 41.0971 61.7882C41.2841 61.6773 41.4563 61.563 41.4797 61.5343C41.5663 61.428 42.741 60.8715 42.9971 60.8152C43.1433 60.7831 43.2846 60.7215 43.3112 60.6784C43.338 60.6352 43.4924 60.6 43.6548 60.6C43.8173 60.6 44.0874 60.5426 44.2553 60.4725C44.4854 60.3762 44.9117 60.345 45.992 60.345C47.9836 60.345 47.8746 60.2807 48.595 61.8749C48.6689 62.0385 48.7624 62.2298 48.8025 62.2999C48.8427 62.37 48.8992 62.4848 48.9279 62.5549C49.389 63.6814 49.843 63.9904 50.2777 63.4736C50.5727 63.1231 50.5327 62.845 50.0342 61.7774C49.83 61.3401 49.5776 60.7912 49.4734 60.5574C49.2983 60.1649 49.0996 59.7274 48.7018 58.8574C48.6162 58.6704 48.3954 58.1923 48.2109 57.7949C48.0265 57.3976 47.7723 56.843 47.6464 56.5625C47.5201 56.282 47.2997 55.8039 47.1563 55.5C46.7231 54.581 46.4328 53.9455 46.2827 53.5875C46.1098 53.1742 45.6499 52.1907 45.5477 52.015C45.5069 51.9449 45.4523 51.8301 45.4262 51.76C45.2389 51.256 44.8918 50.5706 44.7264 50.3788C44.5609 50.1867 44.0318 50.1897 43.8596 50.3839ZM52.6677 50.3884C52.3727 50.7141 52.3562 51.0756 52.3647 56.945C52.3738 63.311 52.3638 63.114 52.6957 63.4854C52.9886 63.8135 53.1972 63.8131 53.5124 63.4844L53.7621 63.2237V56.9182C53.7621 50.7634 53.758 50.6078 53.5944 50.4213C53.3808 50.1775 52.8747 50.1595 52.6677 50.3884ZM34.5446 52.3125C34.5444 53.1072 34.5571 53.4438 34.5728 53.0605C34.5885 52.6769 34.5887 52.0267 34.5731 51.6155C34.5575 51.2041 34.5446 51.5178 34.5446 52.3125ZM18.1474 51.4757C18.2409 51.5295 18.5609 51.6631 18.8584 51.773C19.1561 51.8826 19.4183 52.0203 19.4413 52.0788C19.4642 52.1372 19.5211 52.185 19.5679 52.185C19.8509 52.185 21.1506 53.4768 21.3638 53.97C21.3939 54.0401 21.4513 54.1548 21.491 54.225C21.7405 54.6649 21.9917 55.2913 22.0533 55.6275C22.2122 56.4951 22.1493 58.0338 21.9298 58.6449C21.7815 59.058 21.3215 60.005 21.2124 60.1214C21.1629 60.1743 20.9769 60.3985 20.7991 60.6197C20.4797 61.0171 19.5537 61.7899 19.3966 61.7899C19.3522 61.7899 19.2681 61.8473 19.2098 61.9174C19.1516 61.9876 19.0369 62.0449 18.9548 62.0449C18.8728 62.0449 18.7581 62.1023 18.6999 62.1724C18.6416 62.2425 18.5075 62.2999 18.4017 62.2999C18.2959 62.2999 18.0998 62.3571 17.9659 62.427C17.6178 62.6085 15.2366 62.611 14.9973 62.4302C14.9065 62.3615 14.747 62.3042 14.6424 62.3027C13.4939 62.2863 11.263 60.0411 10.8678 58.5039C10.8278 58.3477 10.7566 58.0765 10.7099 57.9012C10.5918 57.4581 10.6232 56.1876 10.762 55.7888C10.8255 55.6064 10.878 55.4058 10.8786 55.3428C10.8818 55.0605 11.439 53.9685 11.7713 53.5938C11.9122 53.4349 12.1485 53.1676 12.2964 52.9999C12.4443 52.8323 12.6069 52.695 12.6577 52.695C12.7085 52.695 12.7499 52.6599 12.7499 52.6172C12.7499 52.4766 14.1388 51.675 14.3825 51.675C14.4288 51.675 14.5871 51.6202 14.7346 51.5532C15.1649 51.3577 15.2754 51.3467 16.6598 51.3628C17.4686 51.3722 18.043 51.4158 18.1474 51.4757ZM27.394 51.7175C27.3946 51.9513 27.4112 52.0369 27.4308 51.9077C27.4503 51.7783 27.4499 51.587 27.4297 51.4827C27.4095 51.3781 27.3934 51.4838 27.394 51.7175ZM44.6259 53.205C45.2411 54.4914 45.5596 55.2123 45.5596 55.3183C45.5596 55.3635 45.5983 55.4137 45.6455 55.4294C45.6926 55.4451 45.7469 55.5344 45.766 55.6277C45.7974 55.7818 46.0547 56.3708 46.2298 56.69C46.2683 56.7601 46.3594 56.9513 46.4324 57.115C46.5052 57.2786 46.6829 57.6706 46.8272 57.9865C47.3128 59.0483 47.2285 59.1545 45.9038 59.1558C45.2804 59.1564 44.7698 59.203 44.5048 59.2833C44.2753 59.353 43.9629 59.41 43.8106 59.41C43.6582 59.41 43.4251 59.4635 43.2927 59.5292C43.1605 59.5946 42.8418 59.7151 42.5847 59.7967C42.3275 59.8783 42.0407 59.986 41.9472 60.0362C40.989 60.5502 40.5442 60.3632 40.9214 59.6055C41.0332 59.381 41.2809 58.8627 41.4723 58.4537C42.1459 57.0121 42.5234 56.2117 43.026 55.16C43.3052 54.5756 43.6125 53.9253 43.709 53.715C44.0114 53.055 44.4402 52.8166 44.6259 53.205ZM27.3953 58.0499C27.3953 58.3071 27.4112 58.4122 27.4308 58.2837C27.4501 58.1551 27.4501 57.9448 27.4308 57.8162C27.4112 57.6876 27.3953 57.7928 27.3953 58.0499ZM34.5312 58.4324C34.532 58.6194 34.5494 58.686 34.5699 58.5801C34.5903 58.4745 34.5894 58.3215 34.5681 58.2401C34.5469 58.159 34.5301 58.2454 34.5312 58.4324Z" fill="#151515" />
            </svg>