<svg width="1327" height="1304" viewBox="0 0 1327 1304" fill="none" xmlns="http://www.w3.org/2000/svg">
<path d="M1326.13 651.564C1326.13 1011.41 1034.41 1303.13 674.564 1303.13C314.715 1303.13 23 1011.41 23 651.564C23 291.715 314.715 0 674.564 0C1034.41 0 1326.13 291.715 1326.13 651.564ZM28.3119 651.564C28.3119 1008.48 317.649 1297.82 674.564 1297.82C1031.48 1297.82 1320.82 1008.48 1320.82 651.564C1320.82 294.649 1031.48 5.31189 674.564 5.31189C317.649 5.31189 28.3119 294.649 28.3119 651.564Z" fill="#ECECEC"/>
<circle cx="1222.59" cy="295.592" r="39.5923" fill="#ECECEC"/>
<path d="M1222.58 317.154C1221.99 317.154 1221.39 316.994 1220.86 316.693L1215.4 313.458C1214.58 312.998 1214.98 312.838 1215.25 312.75C1216.34 312.368 1216.56 312.289 1217.72 311.624C1217.84 311.553 1218 311.58 1218.13 311.66L1222.33 314.15C1222.48 314.238 1222.69 314.238 1222.83 314.15L1239.2 304.703C1239.35 304.615 1239.45 304.438 1239.45 304.26V285.368C1239.45 285.182 1239.35 285.014 1239.19 284.916L1222.83 275.479C1222.68 275.39 1222.48 275.39 1222.33 275.479L1205.98 284.925C1205.82 285.014 1205.72 285.191 1205.72 285.377V304.26C1205.72 304.438 1205.82 304.615 1205.98 304.695L1210.46 307.282C1212.9 308.496 1214.39 307.069 1214.39 305.625V286.981C1214.39 286.715 1214.6 286.511 1214.86 286.511H1216.94C1217.2 286.511 1217.42 286.715 1217.42 286.981V305.634C1217.42 308.877 1215.64 310.738 1212.57 310.738C1211.62 310.738 1210.88 310.738 1208.8 309.71L1204.51 307.238C1203.45 306.626 1202.8 305.483 1202.8 304.252V285.368C1202.8 284.145 1203.45 282.993 1204.51 282.382L1220.86 272.936C1221.9 272.351 1223.27 272.351 1224.3 272.936L1240.67 282.391C1241.73 283.002 1242.39 284.145 1242.39 285.377V304.26C1242.39 305.483 1241.73 306.626 1240.67 307.247L1224.3 316.693C1223.78 316.994 1223.19 317.154 1222.58 317.154ZM1235.8 298.536C1235.8 295 1233.4 294.061 1228.38 293.396C1223.29 292.723 1222.78 292.377 1222.78 291.19C1222.78 290.206 1223.21 288.895 1226.98 288.895C1230.34 288.895 1231.58 289.622 1232.09 291.89C1232.14 292.103 1232.33 292.262 1232.55 292.262H1234.68C1234.81 292.262 1234.94 292.209 1235.02 292.112C1235.11 292.014 1235.16 291.881 1235.15 291.748C1234.82 287.84 1232.22 286.024 1226.98 286.024C1222.31 286.024 1219.53 287.991 1219.53 291.296C1219.53 294.876 1222.3 295.869 1226.77 296.312C1232.14 296.835 1232.55 297.623 1232.55 298.678C1232.55 300.503 1231.08 301.283 1227.63 301.283C1223.3 301.283 1222.35 300.193 1222.03 298.04C1222 297.809 1221.8 297.641 1221.56 297.641H1219.45C1219.18 297.641 1218.98 297.854 1218.98 298.111C1218.98 300.867 1220.47 304.154 1227.64 304.154C1232.82 304.145 1235.8 302.098 1235.8 298.536Z" fill="#CB76FF"/>
<circle cx="876.965" cy="1252.97" r="35.9652" fill="#ECECEC"/>
<path d="M867.872 1244.52C866.888 1243.47 865.228 1243.41 864.166 1244.38L856.823 1251.08C856.288 1251.57 855.985 1252.25 855.985 1252.97C855.985 1253.68 856.288 1254.37 856.823 1254.85L864.166 1261.55C864.671 1262.01 865.311 1262.24 865.949 1262.24C866.653 1262.24 867.356 1261.96 867.872 1261.41C868.857 1260.37 868.796 1258.74 867.735 1257.77L862.461 1252.97L867.735 1248.16C868.796 1247.19 868.857 1245.56 867.872 1244.52ZM897.106 1251.08L889.763 1244.38C888.702 1243.41 887.042 1243.47 886.057 1244.52C885.072 1245.56 885.133 1247.19 886.194 1248.16L891.468 1252.97L886.194 1257.77C885.133 1258.74 885.072 1260.37 886.057 1261.41C886.573 1261.96 887.276 1262.24 887.98 1262.24C888.618 1262.24 889.258 1262.01 889.763 1261.55L897.106 1254.85C897.641 1254.37 897.944 1253.68 897.944 1252.97C897.944 1252.25 897.641 1251.57 897.106 1251.08ZM881.294 1236.56C879.898 1236.21 878.461 1237.04 878.098 1238.41L870.755 1266.23C870.391 1267.6 871.233 1269.01 872.635 1269.37C872.856 1269.42 873.077 1269.45 873.295 1269.45C874.461 1269.45 875.525 1268.68 875.832 1267.52L883.174 1239.7C883.538 1238.33 882.696 1236.92 881.294 1236.56Z" fill="#CB76FF"/>
<circle cx="40.3426" cy="548.343" r="40.3426" fill="#ECECEC"/>
<path d="M40.3822 564.912C40.2034 564.912 40.0245 564.861 39.8627 564.776L38.2277 563.805C37.9808 563.669 38.1 563.618 38.1852 563.592C38.5088 563.482 38.5769 563.456 38.926 563.252C38.9601 563.235 39.0112 563.243 39.0452 563.26L40.3056 564.01C40.3481 564.035 40.4163 564.035 40.4588 564.01L45.3809 561.165C45.4234 561.14 45.4575 561.089 45.4575 561.029V555.349C45.4575 555.29 45.432 555.238 45.3809 555.213L40.4588 552.377C40.4163 552.352 40.3566 552.352 40.3056 552.377L35.3835 555.213C35.3324 555.238 35.3069 555.298 35.3069 555.349V561.029C35.3069 561.08 35.3409 561.131 35.3835 561.157L36.729 561.932C37.4613 562.298 37.9127 561.864 37.9127 561.438V555.826C37.9127 555.749 37.9723 555.681 38.0574 555.681H38.6791C38.7557 555.681 38.8238 555.741 38.8238 555.826V561.438C38.8238 562.417 38.2959 562.971 37.3677 562.971C37.0866 562.971 36.8567 562.971 36.2351 562.664L34.9407 561.923C34.6256 561.736 34.4213 561.395 34.4213 561.029V555.349C34.4213 554.983 34.6171 554.634 34.9407 554.455L39.8627 551.611C40.1778 551.432 40.5866 551.432 40.8931 551.611L45.8152 554.455C46.1302 554.642 46.3346 554.983 46.3346 555.349V561.029C46.3346 561.395 46.1388 561.744 45.8152 561.923L40.8931 564.767C40.7484 564.861 40.5695 564.912 40.3822 564.912ZM44.359 559.309C44.359 558.245 43.6437 557.963 42.1279 557.759C40.5951 557.555 40.4418 557.453 40.4418 557.095C40.4418 556.797 40.5695 556.405 41.7021 556.405C42.7155 556.405 43.0902 556.627 43.2434 557.308C43.2605 557.376 43.3116 557.418 43.3797 557.418H44.0184C44.0609 557.418 44.095 557.401 44.1206 557.376C44.1461 557.342 44.1631 557.308 44.1546 557.265C44.0524 556.09 43.2775 555.545 41.7021 555.545C40.297 555.545 39.4625 556.141 39.4625 557.129C39.4625 558.21 40.297 558.5 41.6425 558.636C43.252 558.798 43.3797 559.028 43.3797 559.343C43.3797 559.897 42.9369 560.126 41.898 560.126C40.5951 560.126 40.3056 559.803 40.2119 559.156C40.2034 559.088 40.1438 559.036 40.0671 559.036H39.4284C39.3518 559.036 39.2837 559.096 39.2837 559.181C39.2837 560.007 39.735 560.995 41.8895 560.995C43.4649 560.995 44.359 560.382 44.359 559.309ZM49 555.043C49 555.562 48.5742 555.988 48.0548 555.988C47.5353 555.988 47.1095 555.562 47.1095 555.043C47.1095 554.506 47.5524 554.097 48.0548 554.097C48.5657 554.089 49 554.506 49 555.043ZM48.8467 555.043C48.8467 554.6 48.4891 554.251 48.0463 554.251C47.612 554.251 47.2543 554.6 47.2543 555.043C47.2543 555.485 47.612 555.843 48.0463 555.843C48.4891 555.835 48.8467 555.477 48.8467 555.043ZM48.4635 555.571H48.2421C48.2336 555.52 48.1995 555.247 48.1995 555.238C48.1825 555.179 48.1655 555.145 48.0888 555.145H47.9015V555.571H47.6971V554.506H48.0633C48.191 554.506 48.438 554.506 48.438 554.787C48.438 554.983 48.3102 555.026 48.2336 555.051C48.3784 555.06 48.3869 555.153 48.4124 555.29C48.4209 555.375 48.438 555.52 48.4635 555.571ZM48.2251 554.821C48.2251 554.676 48.1229 554.676 48.0718 554.676H47.9015V554.975H48.0633C48.1995 554.975 48.2251 554.881 48.2251 554.821ZM25.1392 542.686C25.1392 542.457 25.02 542.252 24.8241 542.141L19.6041 539.135C19.5189 539.084 19.4167 539.059 19.3145 539.05H19.2634C19.1613 539.05 19.0676 539.084 18.9739 539.135L13.7623 542.141C13.5665 542.252 13.4473 542.465 13.4473 542.686L13.4558 550.776C13.4558 550.887 13.5154 550.989 13.6091 551.049C13.7027 551.108 13.822 551.108 13.9241 551.049L17.0238 549.269C17.2197 549.15 17.3389 548.945 17.3389 548.724V544.943C17.3389 544.722 17.4581 544.509 17.654 544.398L18.9739 543.64C19.0761 543.581 19.1783 543.555 19.289 543.555C19.3997 543.555 19.5104 543.581 19.6041 543.64L20.924 544.398C21.1198 544.509 21.2391 544.722 21.2391 544.943V548.724C21.2391 548.945 21.3583 549.158 21.5541 549.269L24.6538 551.049C24.7475 551.108 24.8752 551.108 24.9689 551.049C25.0626 550.998 25.1222 550.887 25.1222 550.776L25.1392 542.686ZM53.6836 533.856V548.877C53.6836 549.099 53.5644 549.312 53.3685 549.422L48.1484 552.437C47.9526 552.548 47.7141 552.548 47.5183 552.437L42.2982 549.422C42.1023 549.312 41.9831 549.099 41.9831 548.877V542.848C41.9831 542.627 42.1023 542.414 42.2982 542.303L47.5183 539.289C47.7141 539.178 47.9526 539.178 48.1484 539.289L49.4513 540.038C49.5961 540.123 49.7834 540.013 49.7834 539.851V531.846C49.7834 531.608 50.0389 531.454 50.2518 531.574L53.36 533.311C53.5559 533.413 53.6836 533.626 53.6836 533.856ZM49.7664 544.832C49.7664 544.773 49.7324 544.722 49.6898 544.696L47.9015 543.657C47.8504 543.632 47.7908 543.632 47.7397 543.657L45.9514 544.696C45.9003 544.722 45.8748 544.773 45.8748 544.832V546.902C45.8748 546.961 45.9088 547.012 45.9514 547.038L47.7397 548.068C47.7908 548.094 47.8504 548.094 47.893 548.068L49.6813 547.038C49.7324 547.012 49.7579 546.961 49.7579 546.902V544.832H49.7664ZM67.6322 544.773C67.8281 544.662 67.9473 544.449 67.9473 544.228V542.772C67.9473 542.55 67.8281 542.337 67.6322 542.227L62.4462 539.212C62.2503 539.101 62.0119 539.101 61.816 539.212L56.5959 542.227C56.4001 542.337 56.2809 542.55 56.2809 542.772V548.801C56.2809 549.031 56.4001 549.235 56.5959 549.346L61.782 552.301C61.9693 552.411 62.2077 552.411 62.4036 552.301L65.5374 550.555C65.7502 550.436 65.7502 550.129 65.5374 550.01L60.2832 546.995C60.181 546.936 60.1214 546.834 60.1214 546.723V544.832C60.1214 544.722 60.181 544.62 60.2832 544.56L61.9182 543.615C62.0119 543.555 62.1396 543.555 62.2333 543.615L63.8683 544.56C63.962 544.62 64.0301 544.722 64.0301 544.832V546.314C64.0301 546.553 64.2941 546.706 64.507 546.587L67.6322 544.773ZM61.0496 545.071C61.0156 545.096 60.99 545.13 60.99 545.173V546.331C60.99 546.374 61.0156 546.416 61.0496 546.433L62.0545 547.012C62.0885 547.038 62.1396 547.038 62.1737 547.012L63.1785 546.433C63.2126 546.408 63.2381 546.374 63.2381 546.331V545.173C63.2381 545.13 63.2126 545.088 63.1785 545.071L62.1737 544.492C62.1396 544.466 62.0885 544.466 62.0545 544.492L61.0496 545.071ZM39.4029 548.775V542.78C39.4029 542.559 39.2666 542.346 39.0708 542.235L33.8677 539.238C33.6889 539.135 33.442 539.118 33.2376 539.238L28.0345 542.235C27.8387 542.346 27.7024 542.55 27.7024 542.78V548.775C27.7024 549.014 27.8642 549.218 28.043 549.32L33.2546 552.318C33.459 552.437 33.6974 552.428 33.8848 552.318L39.0793 549.32C39.2326 549.235 39.3433 549.09 39.3859 548.92C39.3944 548.877 39.4029 548.826 39.4029 548.775ZM33.0758 538.139L33.0077 538.182H33.1013L33.0758 538.139ZM39.5647 549.226L39.5306 549.167V549.243L39.5647 549.226Z" fill="#CB76FF"/>
<path d="M707.876 635.814C706.767 635.444 705.658 635.095 704.549 634.766C704.734 634.007 704.898 633.247 705.063 632.487C707.588 620.248 705.925 610.412 700.319 607.168C694.918 604.067 686.109 607.291 677.197 615.053C676.314 615.813 675.452 616.614 674.63 617.415C674.076 616.881 673.501 616.347 672.926 615.834C663.583 607.538 654.219 604.047 648.613 607.312C643.233 610.433 641.631 619.694 643.89 631.276C644.116 632.425 644.362 633.555 644.65 634.705C643.335 635.074 642.042 635.485 640.83 635.916C629.865 639.715 622 645.711 622 651.913C622 658.32 630.378 664.747 641.775 668.649C642.699 668.957 643.623 669.265 644.568 669.532C644.26 670.764 643.993 671.975 643.746 673.228C641.59 684.624 643.274 693.66 648.654 696.76C654.198 699.964 663.521 696.678 672.597 688.731C673.316 688.095 674.035 687.438 674.753 686.74C675.657 687.623 676.602 688.464 677.546 689.286C686.335 696.843 695.021 699.902 700.381 696.802C705.925 693.598 707.732 683.885 705.391 672.057C705.206 671.154 705.001 670.23 704.775 669.285C705.432 669.1 706.069 668.895 706.705 668.69C718.554 664.768 727.137 658.422 727.137 651.913C727.137 645.691 719.047 639.654 707.876 635.814ZM680.092 618.38C687.731 611.727 694.857 609.119 698.101 610.987C701.572 612.979 702.906 621.029 700.73 631.604C700.586 632.302 700.442 632.98 700.257 633.658C695.699 632.631 691.078 631.892 686.438 631.481C683.768 627.661 680.852 624.006 677.69 620.577C678.491 619.817 679.271 619.099 680.092 618.38ZM656.334 662.57C657.381 664.357 658.449 666.143 659.578 667.889C656.375 667.54 653.192 667.026 650.05 666.349C650.954 663.392 652.083 660.332 653.397 657.211C654.342 659.018 655.307 660.804 656.334 662.57ZM650.112 637.867C653.069 637.21 656.211 636.676 659.476 636.265C658.387 637.97 657.32 639.715 656.313 641.481C655.307 643.227 654.321 645.013 653.397 646.82C652.104 643.761 651.015 640.763 650.112 637.867ZM655.738 652.016C657.094 649.182 658.572 646.41 660.133 643.678C661.693 640.947 663.377 638.298 665.143 635.69C668.223 635.465 671.365 635.341 674.569 635.341C677.772 635.341 680.934 635.465 683.994 635.69C685.739 638.278 687.403 640.927 688.984 643.637C690.565 646.348 692.044 649.12 693.44 651.933C692.064 654.767 690.586 657.56 689.004 660.311C687.444 663.043 685.781 665.692 684.035 668.32C680.975 668.546 677.793 668.649 674.569 668.649C671.345 668.649 668.223 668.546 665.205 668.361C663.418 665.753 661.734 663.084 660.153 660.353C658.572 657.621 657.114 654.849 655.738 652.016ZM692.824 662.529C693.871 660.722 694.857 658.895 695.822 657.046C697.136 660.024 698.286 663.043 699.292 666.143C696.109 666.862 692.885 667.416 689.641 667.786C690.75 666.061 691.797 664.295 692.824 662.529ZM695.781 646.82C694.816 645.013 693.83 643.206 692.803 641.44C691.797 639.695 690.75 637.97 689.662 636.265C692.968 636.676 696.13 637.231 699.087 637.908C698.142 640.947 697.033 643.904 695.781 646.82ZM674.61 623.719C676.766 626.06 678.799 628.524 680.688 631.07C676.622 630.885 672.536 630.885 668.47 631.07C670.482 628.421 672.556 625.957 674.61 623.719ZM650.79 611.131C654.239 609.119 661.899 611.994 669.969 619.14C670.482 619.591 670.996 620.084 671.529 620.577C668.347 624.006 665.41 627.661 662.72 631.481C658.079 631.892 653.48 632.61 648.921 633.616C648.654 632.569 648.428 631.501 648.202 630.434C646.272 620.495 647.545 613 650.79 611.131ZM645.759 665.26C644.896 665.014 644.054 664.747 643.212 664.459C638.838 663.084 633.869 660.907 630.275 658.053C628.201 656.615 626.805 654.398 626.415 651.913C626.415 648.155 632.904 643.35 642.268 640.085C643.438 639.674 644.629 639.305 645.82 638.955C647.217 643.412 648.9 647.785 650.851 652.016C648.88 656.307 647.175 660.743 645.759 665.26ZM669.702 685.384C666.314 688.485 662.392 690.949 658.12 692.633C655.841 693.721 653.213 693.824 650.872 692.9C647.607 691.011 646.251 683.762 648.099 674.008C648.325 672.858 648.572 671.708 648.859 670.579C653.459 671.564 658.1 672.242 662.802 672.591C665.513 676.431 668.49 680.107 671.673 683.557C671.016 684.193 670.359 684.809 669.702 685.384ZM674.733 680.394C672.638 678.136 670.544 675.63 668.511 672.94C670.482 673.022 672.515 673.063 674.569 673.063C676.684 673.063 678.758 673.022 680.811 672.92C678.922 675.528 676.889 678.012 674.733 680.394ZM701.572 686.555C701.387 689.06 700.155 691.401 698.183 692.982C694.918 694.871 687.957 692.407 680.442 685.959C679.579 685.22 678.717 684.419 677.834 683.598C680.975 680.127 683.871 676.452 686.499 672.591C691.202 672.201 695.884 671.482 700.504 670.435C700.709 671.277 700.894 672.119 701.058 672.94C702.064 677.376 702.229 681.996 701.572 686.555ZM705.309 664.48C704.734 664.665 704.159 664.85 703.564 665.014C702.126 660.537 700.36 656.164 698.327 651.913C700.298 647.724 701.962 643.412 703.358 638.997C704.426 639.305 705.453 639.633 706.438 639.962C716.007 643.247 722.722 648.134 722.722 651.872C722.722 655.897 715.556 661.092 705.309 664.48ZM674.569 661.4C679.764 661.4 683.973 657.19 683.973 651.995C683.973 646.8 679.764 642.59 674.569 642.59C669.373 642.59 665.164 646.8 665.164 651.995C665.164 657.19 669.373 661.4 674.569 661.4Z" fill="#CB76FF"/>
</svg>
