<svg width="1304" height="1304" viewBox="0 0 1304 1304" fill="none" xmlns="http://www.w3.org/2000/svg">
<path d="M1303.13 651.564C1303.13 1011.41 1011.41 1303.13 651.564 1303.13C291.715 1303.13 0 1011.41 0 651.564C0 291.715 291.715 0 651.564 0C1011.41 0 1303.13 291.715 1303.13 651.564ZM5.31189 651.564C5.31189 1008.48 294.649 1297.82 651.564 1297.82C1008.48 1297.82 1297.82 1008.48 1297.82 651.564C1297.82 294.649 1008.48 5.31189 651.564 5.31189C294.649 5.31189 5.31189 294.649 5.31189 651.564Z" fill="#ECECEC"/>
<circle cx="152.438" cy="1066" r="33.1611" fill="#ECECEC"/>
<path d="M144.054 1058.21C143.146 1057.25 141.616 1057.2 140.637 1058.09L133.866 1064.26C133.373 1064.71 133.094 1065.34 133.094 1066C133.094 1066.66 133.373 1067.29 133.866 1067.74L140.637 1073.92C141.102 1074.34 141.693 1074.55 142.281 1074.55C142.93 1074.55 143.578 1074.3 144.054 1073.79C144.963 1072.83 144.906 1071.33 143.928 1070.44L139.065 1066L143.928 1061.57C144.906 1060.68 144.963 1059.17 144.054 1058.21ZM171.009 1064.26L164.239 1058.09C163.26 1057.2 161.729 1057.25 160.821 1058.21C159.913 1059.17 159.969 1060.68 160.948 1061.57L165.81 1066L160.948 1070.44C159.969 1071.33 159.913 1072.83 160.821 1073.79C161.297 1074.3 161.945 1074.55 162.594 1074.55C163.183 1074.55 163.773 1074.34 164.239 1073.92L171.009 1067.74C171.502 1067.29 171.782 1066.66 171.782 1066C171.782 1065.34 171.502 1064.71 171.009 1064.26ZM156.429 1050.88C155.143 1050.55 153.818 1051.32 153.482 1052.58L146.712 1078.23C146.377 1079.5 147.153 1080.8 148.446 1081.13C148.649 1081.18 148.853 1081.2 149.054 1081.2C150.129 1081.2 151.111 1080.49 151.393 1079.42L158.164 1053.78C158.499 1052.51 157.722 1051.21 156.429 1050.88Z" fill="#CB76FF"/>
<circle cx="1003.55" cy="1204.68" r="29.6406" fill="#ECECEC"/>
<path d="M1003.54 1220.82C1003.1 1220.82 1002.64 1220.7 1002.25 1220.48L998.16 1218.06C997.55 1217.71 997.848 1217.59 998.047 1217.52C998.863 1217.24 999.029 1217.18 999.898 1216.68C999.991 1216.63 1000.11 1216.65 1000.2 1216.71L1003.35 1218.57C1003.46 1218.64 1003.62 1218.64 1003.73 1218.57L1015.98 1211.5C1016.09 1211.43 1016.16 1211.3 1016.16 1211.17V1197.03C1016.16 1196.89 1016.09 1196.76 1015.97 1196.69L1003.73 1189.62C1003.61 1189.56 1003.46 1189.56 1003.35 1189.62L991.108 1196.69C990.989 1196.76 990.916 1196.89 990.916 1197.03V1211.17C990.916 1211.3 990.989 1211.43 991.108 1211.49L994.465 1213.43C996.289 1214.34 997.404 1213.27 997.404 1212.19V1198.23C997.404 1198.03 997.563 1197.88 997.762 1197.88H999.314C999.507 1197.88 999.673 1198.03 999.673 1198.23V1212.2C999.673 1214.63 998.346 1216.02 996.044 1216.02C995.334 1216.02 994.777 1216.02 993.224 1215.25L990.014 1213.4C989.217 1212.94 988.727 1212.08 988.727 1211.16V1197.03C988.727 1196.11 989.217 1195.25 990.014 1194.79L1002.25 1187.72C1003.03 1187.28 1004.06 1187.28 1004.83 1187.72L1017.08 1194.8C1017.88 1195.25 1018.37 1196.11 1018.37 1197.03V1211.17C1018.37 1212.08 1017.88 1212.94 1017.08 1213.4L1004.83 1220.48C1004.44 1220.7 1003.99 1220.82 1003.54 1220.82ZM1013.43 1206.88C1013.43 1204.24 1011.64 1203.53 1007.88 1203.04C1004.07 1202.53 1003.69 1202.27 1003.69 1201.38C1003.69 1200.65 1004.01 1199.67 1006.83 1199.67C1009.34 1199.67 1010.27 1200.21 1010.66 1201.91C1010.69 1202.07 1010.84 1202.19 1011 1202.19H1012.6C1012.7 1202.19 1012.79 1202.15 1012.85 1202.07C1012.92 1202 1012.95 1201.9 1012.95 1201.8C1012.7 1198.88 1010.76 1197.52 1006.83 1197.52C1003.33 1197.52 1001.25 1198.99 1001.25 1201.46C1001.25 1204.14 1003.33 1204.89 1006.68 1205.22C1010.69 1205.61 1011 1206.2 1011 1206.99C1011 1208.36 1009.9 1208.94 1007.32 1208.94C1004.08 1208.94 1003.37 1208.12 1003.13 1206.51C1003.1 1206.34 1002.96 1206.21 1002.78 1206.21H1001.19C1000.99 1206.21 1000.84 1206.37 1000.84 1206.57C1000.84 1208.63 1001.96 1211.09 1007.33 1211.09C1011.2 1211.08 1013.43 1209.55 1013.43 1206.88Z" fill="#CB76FF"/>
<circle cx="1088.23" cy="168.316" r="42.6357" fill="#ECECEC"/>
<path d="M1088.28 185.829C1088.09 185.829 1087.9 185.775 1087.73 185.685L1086 184.659C1085.74 184.515 1085.86 184.461 1085.95 184.434C1086.3 184.317 1086.37 184.29 1086.74 184.074C1086.77 184.056 1086.83 184.065 1086.86 184.083L1088.2 184.875C1088.24 184.902 1088.31 184.902 1088.36 184.875L1093.56 181.869C1093.6 181.842 1093.64 181.788 1093.64 181.725V175.723C1093.64 175.66 1093.61 175.606 1093.56 175.579L1088.36 172.582C1088.31 172.555 1088.25 172.555 1088.2 172.582L1082.99 175.579C1082.94 175.606 1082.91 175.669 1082.91 175.723V181.725C1082.91 181.779 1082.95 181.833 1082.99 181.86L1084.42 182.679C1085.19 183.066 1085.67 182.607 1085.67 182.157V176.227C1085.67 176.146 1085.73 176.074 1085.82 176.074H1086.48C1086.56 176.074 1086.63 176.137 1086.63 176.227V182.157C1086.63 183.192 1086.07 183.777 1085.09 183.777C1084.79 183.777 1084.55 183.777 1083.89 183.453L1082.53 182.67C1082.19 182.472 1081.98 182.112 1081.98 181.725V175.723C1081.98 175.336 1082.18 174.967 1082.53 174.778L1087.73 171.772C1088.06 171.583 1088.49 171.583 1088.82 171.772L1094.02 174.778C1094.35 174.976 1094.57 175.336 1094.57 175.723V181.725C1094.57 182.112 1094.36 182.481 1094.02 182.67L1088.82 185.676C1088.66 185.775 1088.47 185.829 1088.28 185.829ZM1092.48 179.907C1092.48 178.782 1091.72 178.485 1090.12 178.269C1088.5 178.053 1088.34 177.945 1088.34 177.567C1088.34 177.252 1088.47 176.838 1089.67 176.838C1090.74 176.838 1091.14 177.072 1091.3 177.792C1091.32 177.864 1091.37 177.909 1091.44 177.909H1092.12C1092.16 177.909 1092.2 177.891 1092.23 177.864C1092.25 177.828 1092.27 177.792 1092.26 177.747C1092.16 176.506 1091.34 175.93 1089.67 175.93C1088.19 175.93 1087.3 176.56 1087.3 177.603C1087.3 178.746 1088.19 179.052 1089.61 179.196C1091.31 179.367 1091.44 179.61 1091.44 179.943C1091.44 180.528 1090.98 180.771 1089.88 180.771C1088.5 180.771 1088.2 180.429 1088.1 179.745C1088.09 179.673 1088.02 179.619 1087.94 179.619H1087.27C1087.19 179.619 1087.12 179.682 1087.12 179.772C1087.12 180.645 1087.59 181.689 1089.87 181.689C1091.53 181.689 1092.48 181.041 1092.48 179.907ZM1097.38 175.399C1097.38 175.948 1096.93 176.398 1096.39 176.398C1095.84 176.398 1095.39 175.948 1095.39 175.399C1095.39 174.832 1095.85 174.4 1096.39 174.4C1096.93 174.391 1097.38 174.832 1097.38 175.399ZM1097.22 175.399C1097.22 174.931 1096.84 174.562 1096.38 174.562C1095.92 174.562 1095.54 174.931 1095.54 175.399C1095.54 175.867 1095.92 176.245 1096.38 176.245C1096.84 176.236 1097.22 175.858 1097.22 175.399ZM1096.82 175.957H1096.58C1096.57 175.903 1096.54 175.615 1096.54 175.606C1096.52 175.543 1096.5 175.507 1096.42 175.507H1096.22V175.957H1096.01V174.832H1096.39C1096.53 174.832 1096.79 174.832 1096.79 175.129C1096.79 175.336 1096.66 175.381 1096.57 175.408C1096.73 175.417 1096.74 175.516 1096.76 175.66C1096.77 175.75 1096.79 175.903 1096.82 175.957ZM1096.57 175.165C1096.57 175.012 1096.46 175.012 1096.4 175.012H1096.22V175.327H1096.39C1096.54 175.327 1096.57 175.228 1096.57 175.165ZM1072.17 162.34C1072.17 162.097 1072.04 161.881 1071.83 161.764L1066.32 158.587C1066.23 158.533 1066.12 158.506 1066.01 158.497H1065.96C1065.85 158.497 1065.75 158.533 1065.65 158.587L1060.14 161.764C1059.94 161.881 1059.81 162.106 1059.81 162.34L1059.82 170.89C1059.82 171.007 1059.88 171.115 1059.98 171.178C1060.08 171.241 1060.21 171.241 1060.31 171.178L1063.59 169.297C1063.8 169.171 1063.92 168.955 1063.92 168.721V164.725C1063.92 164.491 1064.05 164.266 1064.26 164.149L1065.65 163.348C1065.76 163.285 1065.87 163.258 1065.98 163.258C1066.1 163.258 1066.22 163.285 1066.32 163.348L1067.71 164.149C1067.92 164.266 1068.05 164.491 1068.05 164.725V168.721C1068.05 168.955 1068.17 169.18 1068.38 169.297L1071.65 171.178C1071.75 171.241 1071.89 171.241 1071.99 171.178C1072.09 171.124 1072.15 171.007 1072.15 170.89L1072.17 162.34ZM1102.33 153.007V168.883C1102.33 169.117 1102.21 169.342 1102 169.459L1096.48 172.645C1096.28 172.762 1096.03 172.762 1095.82 172.645L1090.3 169.459C1090.09 169.342 1089.97 169.117 1089.97 168.883V162.511C1089.97 162.277 1090.09 162.052 1090.3 161.935L1095.82 158.749C1096.03 158.632 1096.28 158.632 1096.48 158.749L1097.86 159.541C1098.01 159.631 1098.21 159.514 1098.21 159.343V150.883C1098.21 150.631 1098.48 150.469 1098.71 150.595L1101.99 152.431C1102.2 152.539 1102.33 152.764 1102.33 153.007ZM1098.19 164.608C1098.19 164.545 1098.16 164.491 1098.11 164.464L1096.22 163.366C1096.17 163.339 1096.11 163.339 1096.05 163.366L1094.16 164.464C1094.11 164.491 1094.08 164.545 1094.08 164.608V166.795C1094.08 166.858 1094.12 166.912 1094.16 166.939L1096.05 168.028C1096.11 168.055 1096.17 168.055 1096.21 168.028L1098.1 166.939C1098.16 166.912 1098.19 166.858 1098.19 166.795V164.608H1098.19ZM1117.08 164.545C1117.28 164.428 1117.41 164.203 1117.41 163.969V162.43C1117.41 162.196 1117.28 161.971 1117.08 161.854L1111.59 158.668C1111.39 158.551 1111.14 158.551 1110.93 158.668L1105.41 161.854C1105.2 161.971 1105.08 162.196 1105.08 162.43V168.802C1105.08 169.045 1105.2 169.261 1105.41 169.378L1110.89 172.501C1111.09 172.618 1111.34 172.618 1111.55 172.501L1114.86 170.656C1115.09 170.53 1115.09 170.206 1114.86 170.08L1109.31 166.894C1109.2 166.831 1109.14 166.723 1109.14 166.606V164.608C1109.14 164.491 1109.2 164.383 1109.31 164.32L1111.04 163.321C1111.14 163.258 1111.27 163.258 1111.37 163.321L1113.1 164.32C1113.2 164.383 1113.27 164.491 1113.27 164.608V166.174C1113.27 166.426 1113.55 166.588 1113.77 166.462L1117.08 164.545ZM1110.12 164.86C1110.08 164.887 1110.06 164.923 1110.06 164.968V166.192C1110.06 166.237 1110.08 166.282 1110.12 166.3L1111.18 166.912C1111.22 166.939 1111.27 166.939 1111.31 166.912L1112.37 166.3C1112.4 166.273 1112.43 166.237 1112.43 166.192V164.968C1112.43 164.923 1112.4 164.878 1112.37 164.86L1111.31 164.248C1111.27 164.221 1111.22 164.221 1111.18 164.248L1110.12 164.86ZM1087.24 168.775V162.439C1087.24 162.205 1087.1 161.98 1086.89 161.863L1081.39 158.695C1081.2 158.587 1080.94 158.569 1080.73 158.695L1075.23 161.863C1075.02 161.98 1074.88 162.196 1074.88 162.439V168.775C1074.88 169.027 1075.05 169.243 1075.24 169.351L1080.74 172.519C1080.96 172.645 1081.21 172.636 1081.41 172.519L1086.9 169.351C1087.06 169.261 1087.18 169.108 1087.22 168.928C1087.23 168.883 1087.24 168.829 1087.24 168.775ZM1080.55 157.534L1080.48 157.579H1080.58L1080.55 157.534ZM1087.41 169.252L1087.38 169.189V169.27L1087.41 169.252Z" fill="#CB76FF"/>
<circle cx="160.906" cy="225.48" r="32.8164" fill="#ECECEC"/>
<path d="M145.027 208.543L148.01 242.212L161.393 246.652L174.861 242.212L177.844 208.543H145.027ZM171.366 219.423H155.658L156.009 223.625H171.016L169.853 236.249L161.487 238.546V238.571H161.393L152.958 236.249L152.445 229.801H156.522L156.821 233.042L161.393 234.275L165.982 233.042L166.495 227.751H152.232L151.138 215.365H171.742L171.366 219.423Z" fill="#CB76FF"/>
</svg>
