<svg width="1337" height="1369" viewBox="0 0 1337 1369" fill="none" xmlns="http://www.w3.org/2000/svg">
<path d="M1320.13 682.564C1320.13 1042.41 1028.41 1334.13 668.564 1334.13C308.715 1334.13 17 1042.41 17 682.564C17 322.715 308.715 31 668.564 31C1028.41 31 1320.13 322.715 1320.13 682.564ZM22.3119 682.564C22.3119 1039.48 311.649 1328.82 668.564 1328.82C1025.48 1328.82 1314.82 1039.48 1314.82 682.564C1314.82 325.649 1025.48 36.3119 668.564 36.3119C311.649 36.3119 22.3119 325.649 22.3119 682.564Z" fill="#ECECEC"/>
<circle cx="608.952" cy="1332.95" r="35.9517" fill="#ECECEC"/>
<path d="M608.988 1347.72C608.829 1347.72 608.669 1347.67 608.525 1347.6L607.068 1346.73C606.848 1346.61 606.954 1346.57 607.03 1346.54C607.319 1346.44 607.379 1346.42 607.691 1346.24C607.721 1346.22 607.766 1346.23 607.797 1346.25L608.92 1346.91C608.958 1346.94 609.019 1346.94 609.056 1346.91L613.443 1344.38C613.481 1344.36 613.511 1344.31 613.511 1344.26V1339.2C613.511 1339.14 613.488 1339.1 613.443 1339.07L609.056 1336.55C609.019 1336.53 608.965 1336.53 608.92 1336.55L604.534 1339.07C604.488 1339.1 604.465 1339.15 604.465 1339.2V1344.26C604.465 1344.3 604.496 1344.35 604.534 1344.37L605.733 1345.06C606.385 1345.39 606.787 1345 606.787 1344.62V1339.62C606.787 1339.55 606.841 1339.49 606.916 1339.49H607.47C607.539 1339.49 607.599 1339.55 607.599 1339.62V1344.62C607.599 1345.5 607.129 1345.99 606.302 1345.99C606.051 1345.99 605.846 1345.99 605.292 1345.72L604.139 1345.05C603.858 1344.89 603.676 1344.58 603.676 1344.26V1339.2C603.676 1338.87 603.851 1338.56 604.139 1338.4L608.525 1335.86C608.806 1335.71 609.17 1335.71 609.444 1335.86L613.83 1338.4C614.111 1338.57 614.293 1338.87 614.293 1339.2V1344.26C614.293 1344.58 614.118 1344.9 613.83 1345.05L609.444 1347.59C609.315 1347.67 609.155 1347.72 608.988 1347.72ZM612.532 1342.73C612.532 1341.78 611.895 1341.53 610.544 1341.34C609.178 1341.16 609.041 1341.07 609.041 1340.75C609.041 1340.49 609.155 1340.14 610.164 1340.14C611.068 1340.14 611.401 1340.33 611.538 1340.94C611.553 1341 611.599 1341.04 611.659 1341.04H612.229C612.267 1341.04 612.297 1341.03 612.32 1341C612.342 1340.97 612.358 1340.94 612.35 1340.9C612.259 1339.86 611.568 1339.37 610.164 1339.37C608.912 1339.37 608.169 1339.9 608.169 1340.78C608.169 1341.75 608.912 1342 610.111 1342.13C611.546 1342.27 611.659 1342.47 611.659 1342.76C611.659 1343.25 611.265 1343.45 610.339 1343.45C609.178 1343.45 608.92 1343.17 608.836 1342.59C608.829 1342.53 608.776 1342.48 608.707 1342.48H608.138C608.07 1342.48 608.009 1342.54 608.009 1342.61C608.009 1343.35 608.411 1344.23 610.331 1344.23C611.735 1344.23 612.532 1343.68 612.532 1342.73ZM616.668 1338.92C616.668 1339.39 616.289 1339.77 615.826 1339.77C615.363 1339.77 614.983 1339.39 614.983 1338.92C614.983 1338.45 615.378 1338.08 615.826 1338.08C616.281 1338.07 616.668 1338.45 616.668 1338.92ZM616.531 1338.92C616.531 1338.53 616.213 1338.22 615.818 1338.22C615.431 1338.22 615.112 1338.53 615.112 1338.92C615.112 1339.32 615.431 1339.64 615.818 1339.64C616.213 1339.63 616.531 1339.31 616.531 1338.92ZM616.19 1339.39H615.993C615.985 1339.35 615.955 1339.11 615.955 1339.1C615.94 1339.04 615.924 1339.01 615.856 1339.01H615.689V1339.39H615.507V1338.45H615.833C615.947 1338.45 616.167 1338.45 616.167 1338.7C616.167 1338.87 616.053 1338.91 615.985 1338.93C616.114 1338.94 616.122 1339.02 616.144 1339.14C616.152 1339.22 616.167 1339.35 616.19 1339.39ZM615.977 1338.73C615.977 1338.6 615.886 1338.6 615.841 1338.6H615.689V1338.86H615.833C615.955 1338.86 615.977 1338.78 615.977 1338.73ZM595.404 1327.91C595.404 1327.71 595.298 1327.52 595.123 1327.43L590.472 1324.75C590.396 1324.7 590.305 1324.68 590.214 1324.67H590.168C590.077 1324.67 589.993 1324.7 589.91 1324.75L585.266 1327.43C585.091 1327.52 584.985 1327.71 584.985 1327.91L584.992 1335.12C584.992 1335.22 585.046 1335.31 585.129 1335.36C585.213 1335.42 585.319 1335.42 585.41 1335.36L588.172 1333.78C588.347 1333.67 588.453 1333.49 588.453 1333.29V1329.92C588.453 1329.73 588.559 1329.54 588.734 1329.44L589.91 1328.76C590.001 1328.71 590.092 1328.69 590.191 1328.69C590.289 1328.69 590.388 1328.71 590.472 1328.76L591.648 1329.44C591.822 1329.54 591.929 1329.73 591.929 1329.92V1333.29C591.929 1333.49 592.035 1333.68 592.209 1333.78L594.972 1335.36C595.055 1335.42 595.169 1335.42 595.252 1335.36C595.336 1335.32 595.389 1335.22 595.389 1335.12L595.404 1327.91ZM620.842 1320.04V1333.43C620.842 1333.63 620.736 1333.82 620.561 1333.91L615.909 1336.6C615.735 1336.7 615.522 1336.7 615.348 1336.6L610.696 1333.91C610.521 1333.82 610.415 1333.63 610.415 1333.43V1328.06C610.415 1327.86 610.521 1327.67 610.696 1327.57L615.348 1324.88C615.522 1324.79 615.735 1324.79 615.909 1324.88L617.07 1325.55C617.199 1325.63 617.366 1325.53 617.366 1325.38V1318.25C617.366 1318.04 617.594 1317.9 617.784 1318.01L620.553 1319.56C620.728 1319.65 620.842 1319.84 620.842 1320.04ZM617.351 1329.82C617.351 1329.77 617.321 1329.73 617.283 1329.7L615.689 1328.78C615.644 1328.75 615.59 1328.75 615.545 1328.78L613.951 1329.7C613.906 1329.73 613.883 1329.77 613.883 1329.82V1331.67C613.883 1331.72 613.913 1331.77 613.951 1331.79L615.545 1332.71C615.59 1332.73 615.644 1332.73 615.681 1332.71L617.275 1331.79C617.321 1331.77 617.343 1331.72 617.343 1331.67V1329.82H617.351ZM633.272 1329.77C633.447 1329.67 633.553 1329.48 633.553 1329.29V1327.99C633.553 1327.79 633.447 1327.6 633.272 1327.5L628.651 1324.82C628.476 1324.72 628.264 1324.72 628.089 1324.82L623.437 1327.5C623.263 1327.6 623.156 1327.79 623.156 1327.99V1333.36C623.156 1333.57 623.263 1333.75 623.437 1333.85L628.059 1336.48C628.226 1336.58 628.438 1336.58 628.613 1336.48L631.405 1334.92C631.595 1334.82 631.595 1334.54 631.405 1334.44L626.723 1331.75C626.632 1331.7 626.579 1331.61 626.579 1331.51V1329.82C626.579 1329.73 626.632 1329.63 626.723 1329.58L628.18 1328.74C628.264 1328.69 628.378 1328.69 628.461 1328.74L629.918 1329.58C630.002 1329.63 630.062 1329.73 630.062 1329.82V1331.14C630.062 1331.36 630.297 1331.49 630.487 1331.39L633.272 1329.77ZM627.406 1330.04C627.376 1330.06 627.353 1330.09 627.353 1330.13V1331.16C627.353 1331.2 627.376 1331.24 627.406 1331.25L628.302 1331.77C628.332 1331.79 628.378 1331.79 628.408 1331.77L629.303 1331.25C629.334 1331.23 629.356 1331.2 629.356 1331.16V1330.13C629.356 1330.09 629.334 1330.05 629.303 1330.04L628.408 1329.52C628.378 1329.5 628.332 1329.5 628.302 1329.52L627.406 1330.04ZM608.115 1333.34V1328C608.115 1327.8 607.994 1327.61 607.82 1327.51L603.183 1324.84C603.023 1324.75 602.803 1324.73 602.621 1324.84L597.984 1327.51C597.81 1327.61 597.688 1327.79 597.688 1328V1333.34C597.688 1333.55 597.833 1333.73 597.992 1333.82L602.636 1336.49C602.819 1336.6 603.031 1336.59 603.198 1336.49L607.827 1333.82C607.964 1333.75 608.062 1333.62 608.1 1333.47C608.108 1333.43 608.115 1333.38 608.115 1333.34ZM602.477 1323.86L602.416 1323.9H602.5L602.477 1323.86ZM608.26 1333.74L608.229 1333.69V1333.76L608.26 1333.74Z" fill="#CB76FF"/>
<circle cx="31.5569" cy="594.557" r="31.5569" fill="#ECECEC"/>
<path d="M26.5269 604.058C26.5269 604.179 26.386 604.276 26.2083 604.276C26.0061 604.294 25.8652 604.197 25.8652 604.058C25.8652 603.937 26.0061 603.841 26.1838 603.841C26.3676 603.822 26.5269 603.919 26.5269 604.058ZM24.6215 603.786C24.5786 603.907 24.7011 604.046 24.8849 604.082C25.0442 604.143 25.228 604.082 25.2648 603.961C25.3015 603.841 25.1851 603.702 25.0013 603.647C24.842 603.605 24.6644 603.665 24.6215 603.786ZM27.3295 603.684C27.1518 603.726 27.0293 603.841 27.0476 603.98C27.066 604.1 27.2253 604.179 27.4091 604.137C27.5868 604.094 27.7093 603.98 27.6909 603.859C27.6726 603.744 27.5071 603.665 27.3295 603.684ZM31.3608 580.531C22.8631 580.531 16.3628 586.893 16.3628 595.273C16.3628 601.974 20.6392 607.707 26.7474 609.725C27.5316 609.864 27.8073 609.387 27.8073 608.994C27.8073 608.62 27.789 606.553 27.789 605.285C27.789 605.285 23.5003 606.191 22.5997 603.484C22.5997 603.484 21.9013 601.726 20.8965 601.273C20.8965 601.273 19.4935 600.324 20.9945 600.342C20.9945 600.342 22.5201 600.463 23.3594 601.901C24.7011 604.233 26.9496 603.563 27.8257 603.164C27.9666 602.197 28.3649 601.527 28.806 601.128C25.3812 600.753 21.9258 600.264 21.9258 594.451C21.9258 592.79 22.3914 591.956 23.3717 590.893C23.2124 590.5 22.6916 588.881 23.531 586.79C24.8114 586.397 27.7583 588.422 27.7583 588.422C28.9837 588.083 30.3009 587.908 31.6058 587.908C32.9108 587.908 34.228 588.083 35.4534 588.422C35.4534 588.422 38.4003 586.391 39.6807 586.79C40.5201 588.887 39.9993 590.5 39.84 590.893C40.8203 591.962 41.4207 592.796 41.4207 594.451C41.4207 600.282 37.8121 600.747 34.3873 601.128C34.951 601.605 35.4289 602.511 35.4289 603.931C35.4289 605.967 35.4105 608.487 35.4105 608.982C35.4105 609.375 35.6923 609.852 36.4704 609.713C42.597 607.707 46.7509 601.974 46.7509 595.273C46.7509 586.893 39.8584 580.531 31.3608 580.531ZM22.3179 601.369C22.2382 601.43 22.2566 601.569 22.3608 601.684C22.4588 601.78 22.5997 601.823 22.6793 601.744C22.759 601.684 22.7406 601.545 22.6365 601.43C22.5384 601.333 22.3975 601.291 22.3179 601.369ZM21.6562 600.88C21.6133 600.959 21.6746 601.055 21.7971 601.116C21.8951 601.176 22.0177 601.158 22.0606 601.073C22.1034 600.995 22.0422 600.898 21.9196 600.838C21.7971 600.802 21.6991 600.82 21.6562 600.88ZM23.6412 603.031C23.5432 603.11 23.58 603.291 23.7209 603.406C23.8618 603.545 24.0395 603.563 24.1191 603.466C24.1988 603.387 24.162 603.206 24.0395 603.091C23.9047 602.952 23.7209 602.934 23.6412 603.031ZM22.9428 602.143C22.8448 602.203 22.8448 602.36 22.9428 602.499C23.0408 602.638 23.2062 602.699 23.2859 602.638C23.3839 602.56 23.3839 602.403 23.2859 602.264C23.2001 602.125 23.0408 602.064 22.9428 602.143Z" fill="#CB76FF"/>
<circle cx="639.294" cy="30.9986" r="30.9986" fill="#ECECEC"/>
<path d="M645.792 33.4946C646.631 32.9199 647.794 32.4224 647.794 32.4224C647.794 32.4224 644.484 33.0228 641.19 33.2973C637.161 33.6318 632.833 33.7004 630.66 33.4088C625.519 32.7226 633.483 30.8271 633.483 30.8271C633.483 30.8271 630.395 30.6213 626.588 32.4567C622.098 34.6353 637.709 35.6302 645.792 33.4946ZM638.487 30.7413C636.862 27.079 631.379 23.8626 638.487 18.2361C647.354 11.2202 642.807 6.65723 642.807 6.65723C644.646 13.9048 636.34 16.1005 633.338 20.6034C631.293 23.6825 634.338 26.9846 638.487 30.7413ZM648.29 15.6287C648.299 15.6287 633.303 19.3854 640.463 27.6536C642.576 30.0895 639.907 32.2852 639.907 32.2852C639.907 32.2852 645.27 29.5063 642.807 26.0326C640.506 22.7905 638.744 21.178 648.29 15.6287ZM647.768 38.8294C647.722 38.9111 647.664 38.9862 647.597 39.0524C658.572 36.162 654.535 28.8544 649.291 30.707C649.008 30.8114 648.763 30.9999 648.589 31.2474C648.896 31.1363 649.21 31.0502 649.53 30.9901C652.182 30.4326 655.989 34.5495 647.768 38.8294ZM651.802 44.1729C651.802 44.1729 653.043 45.1935 650.442 45.9912C645.489 47.4922 629.844 47.9467 625.499 46.0512C623.933 45.3736 626.867 44.4216 627.791 44.2243C628.749 44.0185 629.305 44.0528 629.305 44.0528C627.569 42.8263 618.074 46.4629 624.481 47.5007C641.952 50.3483 656.336 46.2228 651.802 44.1729ZM632.679 40.622C625.947 42.5089 636.776 46.4029 645.347 42.7234C644.512 42.3977 643.705 42.0018 642.935 41.5397C639.112 42.2688 637.341 42.3202 633.868 41.9257C631.002 41.5998 632.679 40.622 632.679 40.622ZM648.059 48.9588C641.327 50.2282 633.021 50.0824 628.103 49.2676C628.103 49.259 629.112 50.0996 634.296 50.4341C642.182 50.9401 654.295 50.151 654.577 46.4115C654.577 46.4115 654.03 47.8267 648.059 48.9588ZM644.33 36.9339C639.266 37.9117 636.332 37.886 632.628 37.5C629.762 37.1998 631.635 35.8103 631.635 35.8103C624.21 38.2805 635.758 41.0766 646.134 38.0318C645.464 37.7943 644.849 37.4206 644.33 36.9339Z" fill="#CB76FF"/>
<circle cx="1309.17" cy="563.17" r="27.1699" fill="#ECECEC"/>
<path d="M1323.09 559.274C1322.61 557.341 1321.7 555.884 1319.75 555.884H1317.24V558.849C1317.24 561.15 1315.29 563.089 1313.06 563.089H1306.39C1304.56 563.089 1303.05 564.652 1303.05 566.485V572.851C1303.05 574.665 1304.62 575.728 1306.39 576.247C1308.5 576.866 1310.53 576.979 1313.06 576.247C1314.75 575.76 1316.4 574.778 1316.4 572.851V570.306H1309.73V569.455H1319.75C1321.7 569.455 1322.41 568.098 1323.09 566.066C1323.79 563.971 1323.76 561.957 1323.09 559.274ZM1313.48 572.001C1314.18 572.001 1314.74 572.57 1314.74 573.27C1314.74 573.977 1314.18 574.546 1313.48 574.546C1312.8 574.546 1312.23 573.971 1312.23 573.27C1312.23 572.564 1312.8 572.001 1313.48 572.001ZM1306.08 562.251H1312.76C1314.62 562.251 1316.1 560.719 1316.1 558.855V552.482C1316.1 550.668 1314.57 549.311 1312.76 549.005C1310.52 548.636 1308.09 548.655 1306.08 549.011C1303.25 549.511 1302.74 550.556 1302.74 552.488V555.034H1309.43V555.884H1300.23C1298.29 555.884 1296.59 557.054 1296.05 559.274C1295.44 561.819 1295.42 563.408 1296.05 566.066C1296.53 568.042 1297.66 569.455 1299.61 569.455H1301.9V566.404C1301.9 564.196 1303.81 562.251 1306.08 562.251ZM1305.66 553.333C1304.97 553.333 1304.4 552.764 1304.4 552.063C1304.41 551.356 1304.97 550.787 1305.66 550.787C1306.35 550.787 1306.92 551.363 1306.92 552.063C1306.92 552.764 1306.35 553.333 1305.66 553.333Z" fill="#CB76FF"/>
</svg>
